<?xml version='1.0' encoding='utf-8'?>
<svg xmlns="http://www.w3.org/2000/svg" enable-background="new 0 0 448 433" viewBox="0 0 448 433"> <defs> <filter id="d"> <feGaussianBlur stdDeviation="3.48982"/> </filter> <filter id="c" x="-.13473" y="-.13197" width="1.2694" height="1.2639"> <feGaussianBlur stdDeviation="10.37282"/> </filter> <filter id="b" x="-.06835" y="-.86283" width="1.1367" height="2.7256"> <feGaussianBlur stdDeviation="10.21073"/> </filter> <radialGradient id="e" cx="216.7" cy="393.79" r="296.7" gradientUnits="userSpaceOnUse"> <stop stop-color="#f4d708" offset="0"/> <stop stop-color="#fcb400" offset="1"/> </radialGradient> <radialGradient id="a" cx="-409.77" cy="87.35" r="92.391" gradientTransform="matrix(.78071 1.8152 -1.0896 .46861 5.3129 789.47)" gradientUnits="userSpaceOnUse"> <stop stop-color="#ffea95" offset="0"/> <stop stop-color="#ffea95" stop-opacity=".49804" offset=".67857"/> <stop stop-color="#ffea95" stop-opacity="0" offset="1"/> </radialGradient> </defs> <path d="m22.28 396.83 184.85-368.8s26.409-31.504 52.815 0c26.408 31.506 180.19 370.65 180.19 370.65s3.105 18.534-27.961 18.534h-361.94s-23.3-2e-3 -27.96-20.386z" filter="url(#d)" opacity=".29"/> <path d="m8.551 390.5 184.85-368.8s26.409-31.504 52.815 0c26.408 31.506 180.19 370.65 180.19 370.65s3.105 18.534-27.961 18.534h-361.94s-23.3-2e-3 -27.96-20.386z" fill="url(#e)"/> <path d="m8.551 390.5 184.85-368.8s26.409-31.504 52.815 0c26.408 31.506 180.19 370.65 180.19 370.65s3.105 18.534-27.961 18.534h-361.94s-23.3-2e-3 -27.96-20.386z" fill="none" stroke="#e2a713" stroke-width="5"/> <g transform="translate(611.7 2.1122)"> <path transform="translate(-6.3366 -7.3927)" d="m-392.06 28.938c-0.11742 0.20356-0.31734 0.5644-0.59375 1.0625 0.51387-0.66978 0.54211-0.92629 0.59375-1.0625zm5.6562 0.75c0.03263 0.0558 0.48034 0.432 0.5625 0.53125l-0.25-0.40625c-0.14311-0.22428-0.46912-0.39279-0.3125-0.125zm-1.75 0.9375c-1.7271-0.11959-3.9465 0.6202-5.5625 1.3438-0.79349 1.4619-1.6073 2.9459-2.8125 5.2188-3.2176 6.068-7.7447 14.757-13.125 25.125-10.761 20.736-24.908 48.262-39 75.812-10.207 19.954-19.154 37.578-27.969 54.969 8.9623-3.3456 18.104-6.0886 27.375-8.0938 20.017-4.329 46.2-4.3778 66.031 0.0625 15.511 3.4728 28.258 8.1989 48.188 17.562 8.7503 4.1112 20.156 9.0468 22.031 9.75 7.614 2.8554 15.011 4.5996 20.188 5.1875 0.36469 0.04141 0.62632-0.01614 0.96875 0v-0.03125l-45.688-92.188c-18.079-36.482-30.206-60.743-38.031-75.969-3.9125-7.6128-6.7761-12.973-8.625-16.281-0.31728-0.56773-0.40091-0.68343-0.65625-1.125-0.69417-0.43033-1.4985-0.94644-1.7188-1.0312-0.31134-0.11989-0.87117-0.26247-1.5938-0.3125z" fill="url(#a)" filter="url(#c)"/> </g> <path d="m212.5 292.63c-13.168-79.969-19.75-123.12-19.75-129.45 0-7.703 2.551-13.926 7.66-18.676s10.871-7.121 17.293-7.121c6.949 0 12.82 2.535 17.609 7.598s7.188 11.023 7.188 17.883c0 6.543-6.668 49.801-20 129.77h-10zm27 38.172c0 6.098-2.156 11.301-6.469 15.613s-9.461 6.465-15.453 6.465c-6.098 0-11.301-2.156-15.613-6.465s-6.465-9.516-6.465-15.613c0-5.992 2.152-11.141 6.465-15.453s9.516-6.469 15.613-6.469c5.992 0 11.141 2.156 15.453 6.469s6.469 9.461 6.469 15.453z"/> <path transform="translate(389.7 10.561)" d="m-245.47 358.16c-9.3484 0.01767-19.04 0.64383-29.688 1.8125-26.108 2.8655-50.478 10.015-70.781 20.594-1.5859 0.82631-2.0235 1.1654-3.125 1.7812h0.1875c9.309 0.44787 21.745 1.0043 34.75 1.5625 26.01 1.1165 54.452 2.223 64.562 2.4688 17.488 0.42511 77.94 0.0456 127.34-0.5-8.6414-2.4583-18.265-5.4334-29.938-9.3125-39.788-13.223-65.247-18.459-93.312-18.406zm250.66 10.531c-4.7426 5.3583-10.858 9.8325-17.562 13.594 10.727-0.65901 17.776-1.1374 21.844-1.4688-0.97694-4.546-2.523-8.7469-4.2812-12.125z" fill="#ffea96" filter="url(#b)"/> </svg>