<?xml version="1.0" encoding="UTF-8" standalone="no"?>
<!-- Uploaded to: SVG Repo, www.svgrepo.com, Generator: SVG Repo Mixer Tools -->

<svg
   fill="#000000"
   version="1.1"
   id="Layer_1"
   viewBox="0 0 512 512"
   xml:space="preserve"
   sodipodi:docname="door_open.svg"
   inkscape:version="1.4.3 (0d15f75, 2025-12-25)"
   xmlns:inkscape="http://www.inkscape.org/namespaces/inkscape"
   xmlns:sodipodi="http://sodipodi.sourceforge.net/DTD/sodipodi-0.dtd"
   xmlns="http://www.w3.org/2000/svg"
   xmlns:svg="http://www.w3.org/2000/svg"><defs
   id="defs4" /><sodipodi:namedview
   id="namedview4"
   pagecolor="#ffffff"
   bordercolor="#000000"
   borderopacity="0.25"
   inkscape:showpageshadow="2"
   inkscape:pageopacity="0.0"
   inkscape:pagecheckerboard="0"
   inkscape:deskcolor="#d1d1d1"
   inkscape:zoom="1.7792969"
   inkscape:cx="255.71899"
   inkscape:cy="256"
   inkscape:window-width="1920"
   inkscape:window-height="1171"
   inkscape:window-x="-9"
   inkscape:window-y="-9"
   inkscape:window-maximized="1"
   inkscape:current-layer="Layer_1" />
<g
   id="g2"
   style="fill:#ff6600">
	<g
   id="g1"
   style="fill:#ff6600">
		<path
   d="M506.583,9.847C501.727,3.635,494.286,0,486.402,0h-256c-6.793,0-13.303,2.697-18.099,7.501l-204.8,204.8    c-4.804,4.796-7.501,11.307-7.501,18.099v256c0,14.14,11.46,25.6,25.6,25.6h409.6c14.14,0,25.6-11.46,25.6-25.6V233.549    l50.432-201.745C513.145,24.158,511.43,16.06,506.583,9.847z M435.202,486.4h-409.6V256h409.6V486.4z M435.202,230.4h-409.6    l204.8-204.8h256L435.202,230.4z"
   id="path1"
   style="fill:#ff6600" />
	</g>
</g>
<g
   id="g4"
   style="fill:#ff6600">
	<g
   id="g3"
   style="fill:#ff6600">
		<rect
   x="332.802"
   y="281.6"
   width="76.8"
   height="25.6"
   id="rect2"
   style="fill:#ff6600" />
	</g>
</g>
</svg>
