<?xml version="1.0" encoding="UTF-8" standalone="no"?>
<!-- Uploaded to: SVG Repo, www.svgrepo.com, Generator: SVG Repo Mixer Tools -->

<svg
   width="800px"
   height="800px"
   viewBox="0 0 64 64"
   aria-hidden="true"
   role="img"
   class="iconify iconify--emojione-monotone"
   preserveAspectRatio="xMidYMid meet"
   version="1.1"
   id="svg5"
   sodipodi:docname="fog_front.svg"
   inkscape:version="1.4.3 (0d15f75, 2025-12-25)"
   xmlns:inkscape="http://www.inkscape.org/namespaces/inkscape"
   xmlns:sodipodi="http://sodipodi.sourceforge.net/DTD/sodipodi-0.dtd"
   xmlns="http://www.w3.org/2000/svg"
   xmlns:svg="http://www.w3.org/2000/svg">
  <defs
     id="defs5" />
  <sodipodi:namedview
     id="namedview5"
     pagecolor="#ffffff"
     bordercolor="#000000"
     borderopacity="0.25"
     inkscape:showpageshadow="2"
     inkscape:pageopacity="0.0"
     inkscape:pagecheckerboard="0"
     inkscape:deskcolor="#d1d1d1"
     inkscape:zoom="1.13875"
     inkscape:cx="399.56092"
     inkscape:cy="400"
     inkscape:window-width="1920"
     inkscape:window-height="1171"
     inkscape:window-x="-9"
     inkscape:window-y="-9"
     inkscape:window-maximized="1"
     inkscape:current-layer="svg5" />
  <path
     d="M2 29.632c15.773-12.639 23.328.452 32.799.452c7.549 0 16.789-13.137 27.201-2.356c-11.949-5.748-16.322 6.476-28.662 6.476C23.75 34.203 20.148 22.871 2 29.632"
     fill="#000000"
     id="path1"
     style="fill:#00ff00" />
  <path
     d="M62 39.706c-9.203-7.579-15.129-1.421-22.725 1.77c-4.809 2.019-9.797 1.481-14.771-3.787c3.568 1.288 11.451 5.629 19.254-1.983c-6.725 2.984-15.117.874-21.875-2.496C14.447 29.503 8.254 28.876 2 35.705c3.943-2.965 9.627-2.266 14-1.101c-2.848.105-8.895.771-14 8.664C17.441 30.478 23.004 48 35.082 48C46.787 48 45.746 34.872 62 39.706"
     fill="#000000"
     id="path2"
     style="fill:#00ff00" />
  <path
     d="M2 25.269c1.883-5.427 15.234-13.172 25.779.091C13.041 18.565 2 25.269 2 25.269z"
     fill="#000000"
     id="path3"
     style="fill:#00ff00" />
  <path
     d="M42.135 19.833c6.189-6.839 16.084-3.106 19.865.281c-3.059-.354-12.473-2.357-16.525 1.955c-6.396 6.807-13.891 5.826-16.252 3.35c0 0 7.611.27 12.912-5.586"
     fill="#000000"
     id="path4"
     style="fill:#00ff00" />
  <path
     d="M45.385 35.376C53.348 22.114 62 33.255 62 33.255c-9.441-3.28-16.615 2.121-16.615 2.121"
     fill="#000000"
     id="path5"
     style="fill:#00ff00" />
</svg>
