<?xml version="1.0" encoding="UTF-8" standalone="no"?>
<svg
   version="1.1"
   width="512"
   height="512"
   id="svg6"
   sodipodi:docname="high_beam.svg"
   inkscape:version="1.4.3 (0d15f75, 2025-12-25)"
   xmlns:inkscape="http://www.inkscape.org/namespaces/inkscape"
   xmlns:sodipodi="http://sodipodi.sourceforge.net/DTD/sodipodi-0.dtd"
   xmlns="http://www.w3.org/2000/svg"
   xmlns:svg="http://www.w3.org/2000/svg">
  <defs
     id="defs6" />
  <sodipodi:namedview
     id="namedview6"
     pagecolor="#ffffff"
     bordercolor="#000000"
     borderopacity="0.25"
     inkscape:showpageshadow="2"
     inkscape:pageopacity="0.0"
     inkscape:pagecheckerboard="0"
     inkscape:deskcolor="#d1d1d1"
     inkscape:zoom="1.7792969"
     inkscape:cx="255.71899"
     inkscape:cy="256"
     inkscape:window-width="1920"
     inkscape:window-height="1171"
     inkscape:window-x="-9"
     inkscape:window-y="-9"
     inkscape:window-maximized="1"
     inkscape:current-layer="svg6" />
  <path
     d="M0 0 C5.64534415 4.83638112 10.89150113 10.04013145 16.0625 15.375 C16.87203125 16.17292969 17.6815625 16.97085938 18.515625 17.79296875 C27.35500982 26.75436961 34.68232646 36.5510709 41.0625 47.375 C41.59037109 48.26010254 41.59037109 48.26010254 42.12890625 49.16308594 C47.97860264 59.09785628 51.89500502 69.30803456 55.0625 80.375 C55.57490234 82.06882813 55.57490234 82.06882813 56.09765625 83.796875 C60.9242652 102.92371603 59.86675698 125.57009691 54.0625 144.375 C53.74901611 145.3969043 53.74901611 145.3969043 53.42919922 146.43945312 C47.82386952 164.02381327 38.49569247 179.02861754 27.0625 193.375 C26.2335853 194.44079253 25.40540753 195.50715881 24.578125 196.57421875 C20.71522584 201.45612406 16.78975368 205.75579706 11.9921875 209.72265625 C10.05708347 211.37963804 8.36458753 213.14057421 6.625 215 C-26.81723545 248.76881978 -76.63168196 268.6813866 -122.9375 275.375 C-123.83339844 275.50648438 -124.72929687 275.63796875 -125.65234375 275.7734375 C-157.49283778 279.49570694 -190.24070186 274.3010092 -216.1875 254.65234375 C-247.52234907 228.70317187 -259.27856215 189.02451322 -263.578125 149.8125 C-264.6945925 136.84454628 -265.14272334 123.94806984 -265.125 110.9375 C-265.12439575 110.11006287 -265.1237915 109.28262573 -265.12316895 108.43011475 C-265.0514622 72.0389435 -261.27052792 35.3673729 -244.9375 2.375 C-244.44507813 1.35148437 -243.95265625 0.32796875 -243.4453125 -0.7265625 C-231.10625041 -24.91670116 -209.91522773 -41.24888066 -184.75 -50.4375 C-122.11702592 -69.87079175 -48.04896861 -40.4410954 0 0 Z M-199.9375 2.375 C-200.56527344 2.96667969 -201.19304687 3.55835938 -201.83984375 4.16796875 C-216.59534843 19.32498376 -221.67238775 44.25183664 -224.9375 64.375 C-225.05077637 65.06899902 -225.16405273 65.76299805 -225.28076172 66.47802734 C-232.17719343 111.15775316 -232.75985528 172.89313109 -205.9375 211.375 C-203.11990667 214.90970644 -200.12704968 218.17429804 -196.9375 221.375 C-196.32390625 222.01179687 -195.7103125 222.64859375 -195.078125 223.3046875 C-181.6718053 236.19537952 -162.44615885 239.75042499 -144.46875 239.5234375 C-95.9563286 237.48419855 -50.04373284 216.56634741 -14.9375 183.375 C-14.10605469 182.59640625 -13.27460938 181.8178125 -12.41796875 181.015625 C-3.35700395 172.27478646 3.98625687 162.39041152 10.0625 151.375 C10.72378906 150.17617188 10.72378906 150.17617188 11.3984375 148.953125 C22.23346548 128.33373843 23.79079836 106.48304432 17.0625 84.375 C15.65941166 80.53645063 13.98908345 76.97540814 12.0625 73.375 C11.61003906 72.47652344 11.15757812 71.57804687 10.69140625 70.65234375 C4.51736626 58.75602279 -3.75944555 49.00465192 -12.9375 39.375 C-13.63230469 38.61574219 -14.32710937 37.85648438 -15.04296875 37.07421875 C-25.52340446 25.98563397 -38.65762322 16.77743501 -51.9375 9.375 C-52.72801758 8.92801758 -53.51853516 8.48103516 -54.33300781 8.02050781 C-96.26343275 -15.47725895 -160.67022807 -36.09496691 -199.9375 2.375 Z "
     fill="#000000"
     transform="translate(453.9375,145.625)"
     id="path1"
     style="fill:#0000ff" />
  <path
     d="M0 0 C1.17888794 -0.00571014 2.35777588 -0.01142029 3.5723877 -0.01730347 C4.86232132 -0.01842133 6.15225494 -0.01953918 7.48127747 -0.02069092 C8.85641106 -0.02532141 10.23154337 -0.03034639 11.60667419 -0.03573608 C15.34039315 -0.04884197 19.07409413 -0.05530179 22.80783248 -0.05974674 C25.14301211 -0.0626811 27.47818686 -0.06678665 29.81336403 -0.07125092 C37.12668973 -0.08492264 44.44000426 -0.09459022 51.75334185 -0.09845281 C60.18194795 -0.10292939 68.61039154 -0.12045997 77.03894824 -0.1494534 C83.56226117 -0.17111009 90.08552852 -0.18115925 96.608877 -0.18249393 C100.50088301 -0.18353933 104.3927362 -0.18939032 108.28470421 -0.20731354 C111.94963015 -0.22386282 115.61428953 -0.22591677 119.27923965 -0.21717453 C121.2539286 -0.21604412 123.22860898 -0.2297094 125.20324707 -0.243927 C132.74441008 -0.20872302 140.13219205 0.02624944 146.34773254 4.75372314 C150.49149451 10.10249601 152.50443762 14.23089275 152.10163879 21.14044189 C151.35205236 26.94537868 149.08966722 30.32776558 144.91413879 34.39044189 C137.73180397 39.06731108 129.91951456 38.43115224 121.63142395 38.4151001 C120.2558464 38.41945252 118.88027127 38.42463743 117.50469971 38.43058777 C113.7835267 38.44393267 110.06245555 38.44456144 106.34126329 38.44202447 C103.22763585 38.4409516 100.11402874 38.44584624 97.00040567 38.45062989 C89.6506709 38.46170968 82.30098724 38.46217123 74.95124817 38.45611572 C67.3855207 38.45007781 59.81997928 38.46238576 52.25428355 38.48368579 C45.74364022 38.5013371 39.23305593 38.50729756 32.72238958 38.50404805 C28.84050074 38.50224052 24.95874462 38.50481801 21.07687759 38.51876259 C17.42420672 38.53139383 13.77182454 38.52934725 10.11915779 38.5163517 C8.15166588 38.51288161 6.18416494 38.52412501 4.21670532 38.53591919 C-3.31453952 38.49147681 -10.8117901 38.29821596 -16.92961121 33.42169189 C-17.37304871 32.83387939 -17.81648621 32.24606689 -18.27336121 31.64044189 C-18.73742371 31.05262939 -19.20148621 30.46481689 -19.67961121 29.85919189 C-22.84501342 24.88498841 -22.39663296 18.79287197 -21.77336121 13.14044189 C-20.0817783 8.4298007 -17.4803822 5.28857853 -13.21086121 2.70294189 C-8.5598252 0.58883462 -5.10339882 0.01481921 0 0 Z "
     fill="#000000"
     transform="translate(21.773361206054688,107.85955810546875)"
     id="path2"
     style="fill:#0000ff" />
  <path
     d="M0 0 C1.17184845 -0.00571014 2.3436969 -0.01142029 3.55105591 -0.01730347 C4.82804352 -0.01842133 6.10503113 -0.01953918 7.42071533 -0.02069092 C8.78614434 -0.02532292 10.15157206 -0.03034809 11.51699829 -0.03573608 C15.21966728 -0.04882573 18.92231817 -0.05529837 22.62500668 -0.05974674 C24.94126311 -0.06268316 27.25751465 -0.06678904 29.57376862 -0.07125092 C36.82942581 -0.0849171 44.08507175 -0.09458793 51.34074092 -0.09845281 C59.7002869 -0.10293087 68.05966916 -0.1204707 76.41916537 -0.1494534 C82.8915435 -0.17111007 89.36387569 -0.18115922 95.83628964 -0.18249393 C99.69698215 -0.18353915 103.55752057 -0.18938636 107.41817474 -0.20731354 C111.0527459 -0.22386328 114.68704828 -0.22591656 118.32164383 -0.21717453 C120.27962457 -0.21604428 122.23759668 -0.22970837 124.19552612 -0.243927 C131.71045424 -0.20855315 139.07277159 0.04364426 145.26544189 4.75372314 C149.40920386 10.10249601 151.42214697 14.23089275 151.01934814 21.14044189 C150.26976171 26.94537868 148.00737658 30.32776558 143.83184814 34.39044189 C136.64951332 39.06731108 128.83722391 38.43115224 120.5491333 38.4151001 C119.17355575 38.41945252 117.79798062 38.42463743 116.42240906 38.43058777 C112.70123605 38.44393267 108.9801649 38.44456144 105.25897264 38.44202447 C102.1453452 38.4409516 99.03173809 38.44584624 95.91811502 38.45062989 C88.56838025 38.46170968 81.21869659 38.46217123 73.86895752 38.45611572 C66.30323005 38.45007781 58.73768863 38.46238576 51.1719929 38.48368579 C44.66134957 38.5013371 38.15076528 38.50729756 31.64009893 38.50404805 C27.75821009 38.50224052 23.87645397 38.50481801 19.99458694 38.51876259 C16.34191607 38.53139383 12.68953389 38.52934725 9.03686714 38.5163517 C7.06937523 38.51288161 5.10187429 38.52412501 3.13441467 38.53591919 C-4.39683017 38.49147681 -11.89408075 38.29821596 -18.01190186 33.42169189 C-18.45533936 32.83387939 -18.89877686 32.24606689 -19.35565186 31.64044189 C-19.81971436 31.05262939 -20.28377686 30.46481689 -20.76190186 29.85919189 C-23.92730407 24.88498841 -23.47892361 18.79287197 -22.85565186 13.14044189 C-21.17670509 8.46498925 -18.57750914 5.29887602 -14.35565186 2.70294189 C-9.46887394 0.52134461 -5.32174752 0.01557942 0 0 Z "
     fill="#000000"
     transform="translate(22.85565185546875,372.85955810546875)"
     id="path3"
     style="fill:#0000ff" />
  <path
     d="M0 0 C1.22944336 -0.0071553 2.45888672 -0.01431061 3.72558594 -0.02168274 C5.09043859 -0.02452298 6.45529151 -0.02723471 7.82014465 -0.02983093 C9.25586613 -0.0360967 10.69158599 -0.0427436 12.12730408 -0.04974365 C16.84497449 -0.07077594 21.5626452 -0.08114638 26.28034973 -0.09111023 C27.90565317 -0.09515833 29.53095644 -0.09927526 31.15625954 -0.10346031 C38.79368279 -0.12251145 46.4310964 -0.13674172 54.06853884 -0.14507228 C62.87755118 -0.15483987 71.68631192 -0.18114708 80.49523562 -0.22157317 C87.30810576 -0.25176315 94.1209039 -0.26654395 100.93383962 -0.26985329 C105.00081853 -0.27220083 109.06752864 -0.28112211 113.13443565 -0.30631447 C116.96355025 -0.32965037 120.79222012 -0.33380654 124.62138748 -0.32355309 C126.02258219 -0.32305892 127.4237992 -0.32934414 128.82492638 -0.34310913 C136.68707695 -0.41599271 142.43679234 -0.20374942 149.11238098 4.14717102 C153.36680438 8.40159442 154.88506606 12.64670693 155.42488098 18.58467102 C154.94849704 24.01544799 153.30257431 27.73180598 149.79988098 31.89717102 C145.04858121 35.87500339 141.0431413 37.52158018 134.85054016 37.52812195 C132.99585365 37.54081116 132.99585365 37.54081116 131.10369873 37.55375671 C129.74656544 37.54792473 128.38943346 37.54178028 127.03230286 37.53535461 C125.59289146 37.53942288 124.15348319 37.54476619 122.71408081 37.55128479 C118.81531902 37.56493401 114.91679601 37.55966973 111.01803017 37.55014753 C106.93289687 37.54253849 102.84778366 37.5496 98.76264954 37.55430603 C91.90311523 37.55975996 85.0436779 37.55258151 78.18415833 37.5382843 C70.25995407 37.52195845 62.33598139 37.52724722 54.41178274 37.54376352 C47.60141315 37.55738874 40.79111317 37.55929299 33.98073435 37.55144751 C29.91617444 37.54677668 25.85172328 37.54612987 21.78717041 37.55605698 C17.96542996 37.56473948 14.14398734 37.55868152 10.32227898 37.54137421 C8.9218743 37.53741619 7.52144445 37.5385317 6.12104988 37.5451622 C4.20544979 37.55339408 2.28979475 37.54122772 0.3742218 37.52812195 C-1.23183552 37.52642533 -1.23183552 37.52642533 -2.87033844 37.52469444 C-8.0960232 36.87085455 -11.92982167 34.66593159 -15.20011902 30.58467102 C-15.69125183 29.98525696 -16.18238464 29.3858429 -16.68840027 28.76826477 C-20.09156875 24.16789044 -19.26936833 18.63571774 -18.88761902 13.14717102 C-17.17109691 7.69468904 -13.49142228 4.35937012 -8.88761902 1.14717102 C-5.68112599 0.07834001 -3.37149306 0.01345446 0 0 Z "
     fill="#000000"
     transform="translate(18.887619018554688,240.8528289794922)"
     id="path4"
     style="fill:#0000ff" />
  <path
     d="M0 0 C1.45602287 -0.00706483 2.91203839 -0.01581222 4.36804199 -0.02610779 C8.30824268 -0.04854901 12.24804068 -0.0456745 16.18828082 -0.03678632 C19.48345078 -0.03166451 22.77854587 -0.03897867 26.07370812 -0.04625839 C33.85014975 -0.06324076 41.62639508 -0.05970851 49.40283203 -0.04296875 C57.41291343 -0.02604849 65.42244981 -0.04188411 73.43247169 -0.07419163 C80.32189371 -0.10092179 87.21114643 -0.10815433 94.10061508 -0.09967655 C98.21002143 -0.09475733 102.31909995 -0.0969081 106.42846489 -0.11746407 C110.29389028 -0.1358754 114.15853427 -0.12979708 118.02391815 -0.10526466 C119.43799771 -0.10027392 120.85213737 -0.10370138 122.26616859 -0.11641312 C130.20569986 -0.18211125 136.60533249 -0.07195183 142.65454102 5.53344727 C147.11116335 11.13279328 148.24675715 15.42685367 147.65454102 22.53344727 C145.69956919 28.62212459 142.05106037 33.11328478 136.65454102 36.53344727 C133.32199019 37.60823495 130.2103215 37.66649328 126.72259521 37.68061829 C125.5086055 37.68777359 124.29461578 37.69492889 123.0438385 37.70230103 C121.70150782 37.70514107 120.35917687 37.70785282 119.0168457 37.71044922 C117.60068089 37.71671697 116.18451772 37.72336405 114.76835632 37.73036194 C110.12105446 37.75136719 105.4737524 37.76176081 100.82641602 37.77172852 C99.22432691 37.77577735 97.62223798 37.77989431 96.02014923 37.7840786 C88.49272026 37.80312227 80.96530104 37.81735519 73.43785262 37.82569057 C64.75845987 37.83546116 56.07932227 37.86177934 47.40001941 37.90219146 C40.68479282 37.93238208 33.96963926 37.94716222 27.25434613 37.95047158 C23.24662522 37.95281864 19.23917714 37.96173405 15.23152924 37.98693275 C11.45903296 38.01027045 7.68698809 38.01442414 3.91443825 38.00417137 C2.53420571 38.00367728 1.15395051 38.00996023 -0.22621346 38.02372742 C-8.51291233 38.10172555 -15.57835573 38.10554945 -21.89148331 32.05066395 C-26.47090076 26.85173575 -26.75793469 22.28954863 -26.68530273 15.61547852 C-26.18163691 11.04775053 -24.65225684 7.73122981 -21.34545898 4.53344727 C-14.72364039 -0.52613179 -8.0563263 -0.04111875 0 0 Z "
     fill="#000000"
     transform="translate(26.345458984375,174.466552734375)"
     id="path5"
     style="fill:#0000ff" />
  <path
     d="M0 0 C1.82304657 -0.01279495 1.82304657 -0.01279495 3.68292236 -0.02584839 C5.02162183 -0.02514943 6.3603212 -0.0242264 7.69902039 -0.02310181 C9.11533461 -0.02908924 10.53164558 -0.03589528 11.94795227 -0.04345703 C15.78899744 -0.06110359 19.62995346 -0.06581187 23.47103524 -0.0670886 C25.87305579 -0.06851165 28.27505377 -0.07278418 30.67706871 -0.07808304 C39.06346955 -0.09657965 47.44980686 -0.10475421 55.83622742 -0.10317993 C63.6428238 -0.10197899 71.4491435 -0.12307289 79.25566989 -0.15466726 C85.96668141 -0.18085604 92.6776027 -0.19154612 99.3886649 -0.19026911 C103.39300117 -0.18976019 107.39709154 -0.19540421 111.40137672 -0.21662521 C115.16980376 -0.2360514 118.93775146 -0.23610261 122.70619583 -0.22159195 C124.73951805 -0.21851842 126.77284055 -0.23515003 128.80609131 -0.25247192 C136.51588608 -0.19962339 142.51704897 0.23017492 148.4584856 5.64394569 C152.02866389 9.56521301 153.90955349 13.34159161 153.97904968 18.65805054 C153.56031792 25.65087103 151.66869884 29.81197996 146.38529968 34.57992554 C142.52494703 37.25247738 139.56754891 37.39780045 134.98425293 37.42132568 C133.11484543 37.43422638 133.11484543 37.43422638 131.20767212 37.4473877 C129.82392925 37.45182283 128.44018594 37.4561212 127.05644226 37.46029663 C125.60101628 37.46819925 124.14559226 37.4764683 122.69017029 37.4850769 C117.90757616 37.51128143 113.12497336 37.52660427 108.34233093 37.54086304 C106.6947396 37.54622361 105.04714833 37.55160112 103.39955711 37.55699539 C96.54449249 37.57862297 89.6894302 37.5973585 82.8343401 37.60861778 C73.01713266 37.6248493 63.20032148 37.65800883 53.38326341 37.71501863 C46.47697791 37.75375425 39.57079822 37.77325482 32.66440696 37.77853835 C28.54147005 37.78218725 24.41895593 37.7941586 20.29613686 37.82664108 C16.41442826 37.85678542 12.53339685 37.86301133 8.65159607 37.85125732 C7.23104003 37.85103711 5.81045199 37.85929926 4.39000511 37.87691116 C-3.58050296 37.97031459 -9.97583305 37.89014803 -16.05220032 32.26742554 C-20.29241528 27.0731622 -20.62495394 22.70406776 -20.36860657 16.07211304 C-19.76840512 10.75180889 -17.99438023 8.16864111 -14.17720032 4.51742554 C-9.41333848 1.08744502 -5.85235811 0.01860537 0 0 Z "
     fill="#000000"
     transform="translate(20.052200317382813,306.7325744628906)"
     id="path6"
     style="fill:#0000ff" />
</svg>
