<?xml version="1.0" encoding="UTF-8" standalone="no"?>
<svg
   version="1.1"
   width="512"
   height="512"
   id="svg4"
   sodipodi:docname="low_beam.svg"
   inkscape:version="1.4.3 (0d15f75, 2025-12-25)"
   xmlns:inkscape="http://www.inkscape.org/namespaces/inkscape"
   xmlns:sodipodi="http://sodipodi.sourceforge.net/DTD/sodipodi-0.dtd"
   xmlns="http://www.w3.org/2000/svg"
   xmlns:svg="http://www.w3.org/2000/svg">
  <defs
     id="defs4" />
  <sodipodi:namedview
     id="namedview4"
     pagecolor="#ffffff"
     bordercolor="#000000"
     borderopacity="0.25"
     inkscape:showpageshadow="2"
     inkscape:pageopacity="0.0"
     inkscape:pagecheckerboard="0"
     inkscape:deskcolor="#d1d1d1"
     inkscape:zoom="1.7792969"
     inkscape:cx="255.71899"
     inkscape:cy="256"
     inkscape:window-width="1920"
     inkscape:window-height="1171"
     inkscape:window-x="-9"
     inkscape:window-y="-9"
     inkscape:window-maximized="1"
     inkscape:current-layer="svg4" />
  <path
     d="M0 0 C0.77815063 -0.0065712 1.55630127 -0.0131424 2.35803223 -0.01991272 C4.92936319 -0.03958792 7.50063544 -0.05130495 10.07202148 -0.0612793 C10.95817579 -0.06535482 11.8443301 -0.06943035 12.75733757 -0.07362938 C17.4617578 -0.09448087 22.16614907 -0.10877798 26.87060547 -0.11816406 C31.67444404 -0.12913449 36.47780729 -0.16342652 41.28147984 -0.20333576 C45.01987923 -0.22981087 48.75817158 -0.23788359 52.49665642 -0.24144554 C54.26366263 -0.24624444 56.03066634 -0.25766028 57.79757881 -0.27648354 C73.82076685 -0.43635996 89.85587201 1.46058164 104.88061523 7.36450195 C106.03509155 7.80560303 106.03509155 7.80560303 107.21289062 8.25561523 C119.98636131 13.31667784 131.55268754 20.42334254 142.13061523 29.17700195 C142.90501953 29.81581299 142.90501953 29.81581299 143.69506836 30.4675293 C168.73625414 51.43914205 183.76202282 81.69751088 187.81811523 113.92700195 C190.74277725 151.09458175 180.22685395 184.94214781 156.19311523 213.42700195 C135.4705059 237.2989539 104.56602729 253.95310031 72.80436516 256.35275459 C67.11674762 256.61779373 61.42851241 256.59838018 55.73608398 256.57543945 C53.9282469 256.57746807 52.12041062 256.580386 50.31257629 256.58413696 C46.55693634 256.58851767 42.80151289 256.58226469 39.04589844 256.56811523 C34.26407637 256.55096365 29.48275749 256.56092938 24.70095348 256.57883263 C20.98002915 256.58973367 17.25922192 256.58619636 13.53829384 256.57844925 C11.77587128 256.57646788 10.01343761 256.57883271 8.25102806 256.58588791 C-12.46387674 256.65069644 -28.92297466 251.96158193 -44.05688477 237.0168457 C-51.81353136 228.68726498 -56.60683781 219.352909 -60.36938477 208.67700195 C-60.75175293 207.59604248 -61.13412109 206.51508301 -61.52807617 205.40136719 C-80.16798352 151.09177585 -79.50291764 87.02347594 -54.93188477 34.55200195 C-46.40986455 18.54503277 -32.81840153 7.37715813 -15.63110352 1.9387207 C-10.36384273 0.48594015 -5.45627556 0.02018868 0 0 Z M-12.86938477 50.17700195 C-32.88170696 79.72836716 -34.02872871 128.11254113 -27.7121582 161.96704102 C-23.14464339 188.20654292 -23.14464339 188.20654292 -9.08813477 209.50512695 C-3.55387131 212.47350462 0.23316543 213.30048462 6.48120117 213.33813477 C7.77064636 213.34774231 9.06009155 213.35734985 10.38861084 213.36724854 C11.79740215 213.37210172 13.20619555 213.37637926 14.61499023 213.38012695 C15.33053322 213.38295433 16.0460762 213.38578171 16.78330231 213.38869476 C20.58185696 213.4036842 24.38037378 213.41291085 28.17895508 213.41723633 C32.05833253 213.42267174 35.93735017 213.4465941 39.81661606 213.47520828 C42.83513297 213.49407675 45.85356815 213.49905325 48.87213898 213.5005722 C50.29913516 213.5035532 51.72613156 213.5114223 53.15306854 213.52475739 C66.30217864 213.6387064 79.63954308 212.38228353 91.81811523 207.05200195 C92.51598145 206.75559814 93.21384766 206.45919434 93.93286133 206.15380859 C100.98641089 203.02310165 107.03469646 198.8890771 113.13061523 194.17700195 C114.10514648 193.47704102 114.10514648 193.47704102 115.09936523 192.76293945 C131.39946564 180.23031508 141.52012664 158.13382131 144.13061523 138.17700195 C145.61912557 112.88689098 139.17383475 90.29369246 122.56811523 70.77075195 C106.83887651 54.0332287 85.96076091 44.51282615 63.18066406 42.89678955 C59.18300645 42.78582714 55.1916893 42.75849979 51.19311523 42.77856445 C49.73299007 42.77653479 48.2728659 42.77361602 46.81274414 42.76986694 C43.78757857 42.76549661 40.76268256 42.77170798 37.73754883 42.78588867 C33.88009069 42.80310169 30.02325351 42.79303025 26.16581726 42.77517128 C23.1647682 42.76429347 20.16386489 42.7677959 17.16281128 42.77555466 C15.74038619 42.77753927 14.31794737 42.77515933 12.89553833 42.768116 C3.00254182 42.72980282 -5.40028696 42.89496563 -12.86938477 50.17700195 Z "
     fill="#000000"
     transform="translate(281.869384765625,127.822998046875)"
     id="path1"
     style="fill:#44aa00" />
  <path
     d="M0 0 C4.87534592 3.29888676 7.72708476 6.48768064 10 12 C10.86810473 18.23588566 11.20574771 24.8899415 8 30.5 C2.26896705 37.67833479 -5.22271924 41.30488453 -13.60009766 44.62841797 C-14.63216339 45.04869766 -15.66422913 45.46897736 -16.72756958 45.9019928 C-20.11804774 47.27821344 -23.51542926 48.63624269 -26.9140625 49.9921875 C-29.2906209 50.94732343 -31.66703257 51.90282452 -34.04330444 52.8586731 C-39.01781506 54.85583465 -43.99614071 56.84310081 -48.97705078 58.82421875 C-54.7049884 61.10282898 -60.42167185 63.40810856 -66.13371241 65.72624671 C-71.66319462 67.96875107 -77.20327424 70.18415873 -82.74757004 72.38980484 C-85.08924564 73.32534155 -87.42784888 74.26860926 -89.76314163 75.21996689 C-116.92413247 86.2611585 -116.92413247 86.2611585 -127.52603149 81.97994995 C-132.88628759 79.07157465 -136.78927681 74.65206032 -139.3125 69.125 C-140.99496183 61.47744622 -140.19673801 54.71057357 -136 48 C-130.96919456 42.66229565 -125.23309559 40.04035776 -118.49414062 37.40332031 C-117.46073044 36.9862532 -116.42732025 36.5691861 -115.3625946 36.13948059 C-111.96562969 34.77242952 -108.56122426 33.42508868 -105.15625 32.078125 C-102.78361699 31.12852125 -100.4114309 30.17780015 -98.03967285 29.22601318 C-93.07675489 27.2375725 -88.11056794 25.25766722 -83.14111328 23.28564453 C-76.77759711 20.76037619 -70.42051042 18.21933128 -64.06543732 15.67290115 C-57.99371257 13.24004064 -51.91880578 10.8151531 -45.84375 8.390625 C-44.68821121 7.92891151 -43.53267242 7.46719803 -42.34211731 6.99149323 C-39.06485018 5.68358995 -35.78569698 4.38054325 -32.50585938 3.07910156 C-31.5414946 2.69363663 -30.57712982 2.30817169 -29.58354187 1.911026 C-19.42539143 -2.10661035 -10.33990046 -5.42387706 0 0 Z "
     fill="#000000"
     transform="translate(182,237)"
     id="path2"
     style="fill:#44aa00" />
  <path
     d="M0 0 C4.17834541 3.01894866 6.53282457 6.66097372 8.16796875 11.56640625 C8.81382064 19.3060412 9.03969067 26.2253351 4.16796875 32.56640625 C-1.33506144 37.66032003 -7.60884927 40.47282864 -14.51489258 43.17895508 C-15.55487396 43.59762848 -16.59485535 44.01630188 -17.66635132 44.44766235 C-21.07778791 45.81772725 -24.49572924 47.1706827 -27.9140625 48.5234375 C-30.29481817 49.47551244 -32.675158 50.42862784 -35.05509949 51.38273621 C-40.66470552 53.62858892 -46.27851196 55.863598 -51.89449567 58.09343022 C-58.28107325 60.6300099 -64.66167644 63.18145681 -71.04200709 65.73369944 C-80.95627714 69.69888204 -90.87352867 73.6565724 -100.79614258 77.60083008 C-101.77331741 77.98989029 -102.75049225 78.3789505 -103.75727844 78.77980042 C-104.65015564 79.13431274 -105.54303284 79.48882507 -106.46296692 79.8540802 C-107.62681522 80.31665332 -107.62681522 80.31665332 -108.81417561 80.78857136 C-115.40218179 83.32808953 -121.89006377 83.48275678 -128.64453125 81.37890625 C-135.79430889 77.31334642 -139.51445695 73.53469543 -141.83203125 65.56640625 C-142.92678213 59.0872684 -141.59800731 52.97468766 -137.83203125 47.56640625 C-132.87668547 42.27510483 -127.2438183 39.67672532 -120.58203125 37.06640625 C-119.55480957 36.65116699 -118.52758789 36.23592773 -117.46923828 35.80810547 C-114.5663523 34.63801912 -111.6587278 33.48069243 -108.74890137 32.32800293 C-105.33752061 30.97261832 -101.93296993 29.60023242 -98.52734375 28.23046875 C-91.8337962 25.54110201 -85.13454131 22.86627768 -78.43280029 20.19740295 C-72.87921794 17.98528444 -67.32915759 15.76450962 -61.78129578 13.53808594 C-57.44588346 11.79868134 -53.10632105 10.06993992 -48.765625 8.34375 C-44.24072743 6.54146562 -39.73572788 4.69933097 -35.2421875 2.8203125 C-34.20868164 2.39596924 -33.17517578 1.97162598 -32.11035156 1.53442383 C-30.21658749 0.75668354 -28.32848581 -0.03509032 -26.44824219 -0.8449707 C-17.22521204 -4.59018099 -8.79352969 -4.90704121 0 0 Z "
     fill="#000000"
     transform="translate(183.83203125,152.43359375)"
     id="path3"
     style="fill:#44aa00" />
  <path
     d="M0 0 C5.09620539 3.01237564 8.70841667 7.93775001 10.5625 13.5 C11.15966202 22.1014299 11.00893927 28.05298159 5.625 35 C-4.95850451 43.63959552 -19.79667367 47.8088016 -32.34375 52.80078125 C-34.55919255 53.68624184 -36.77448139 54.57208711 -38.98962402 55.45829773 C-43.60769401 57.30459204 -48.22712323 59.14742739 -52.84765625 60.98754883 C-58.77245199 63.34722234 -64.69446535 65.71378564 -70.6155777 68.08268452 C-75.17856442 69.90771627 -79.74262324 71.7300533 -84.30705261 73.55147362 C-86.49221005 74.4236276 -88.67711761 75.29640788 -90.86177063 76.1698246 C-93.90486212 77.3857628 -96.94929042 78.59828819 -99.99414062 79.80981445 C-100.89598083 80.17082245 -101.79782104 80.53183044 -102.72698975 80.90377808 C-103.55656189 81.23304794 -104.38613403 81.56231781 -105.24084473 81.90156555 C-105.95900612 82.1878246 -106.67716751 82.47408365 -107.41709137 82.76901722 C-114.33911557 85.27340194 -120.830252 85.32047666 -127.62109375 82.4765625 C-132.92011645 79.62762557 -136.97533708 74.15540729 -139.1875 68.625 C-140.11029643 60.78123035 -139.34664881 54.54109484 -134.67189026 48.0473938 C-126.39632757 38.61255268 -108.5599021 34.51846181 -97.19140625 29.9453125 C-96.08228315 29.49847988 -94.97316006 29.05164726 -93.83042717 28.59127426 C-87.96947828 26.23126125 -82.10579806 23.87818168 -76.23999023 21.53027344 C-70.20953776 19.11465159 -64.18982382 16.67335936 -58.17205906 14.22633553 C-53.51348812 12.3377749 -48.84708184 10.4692096 -44.1783886 8.60583115 C-41.95597888 7.71473493 -39.73656557 6.81612502 -37.52038765 5.90964127 C-11.80914428 -4.5900695 -11.80914428 -4.5900695 0 0 Z "
     fill="#000000"
     transform="translate(181.4375,321.5)"
     id="path4"
     style="fill:#44aa00" />
</svg>
